<svg xmlns="http://www.w3.org/2000/svg" viewBox="0 0 400 120" fill="none" stroke="#8B4513" stroke-width="2">
  <!-- 艺术字动态结构 -->
  <style>
    @keyframes crawl {
    0% { transform: translateX(-5px) }
    50% { transform: translateX(5px) }
    100% { transform: translateX(-5px) }
    }
    .motion { animation: crawl 2s infinite linear }
  </style>

  <!-- 蜗牛壳文字结构 -->
  <g transform="translate(20,60)" class="motion">
    <!-- "奔"字结构 -->
    <path d="M0 0Q15-20 30 0" fill="#DEB887"/>
    <path d="M30 0L20 25 40 25" fill="#FFF8DC"/>
    <circle cx="15" cy="-5" r="3" fill="#8B4513"/>

    <!-- 动态轨迹 -->
    <path d="M40 15l20-5 20 10" stroke-dasharray="4" opacity="0.7"/>
  </g>

  <!-- "跑"字蜗牛队列 -->
  <g transform="translate(120,50)">
    <g transform="translate(0,0)">
      <path d="M0 20a10 8 0 1 1 20 0" fill="#FFE4B5"/>
      <path d="M10 15l5-10 5 10" stroke="#D2B48C"/>
      <animateTransform attributeName="transform" type="translate"
                        values="0,0; 0,-5; 0,0" dur="1.2s" repeatCount="indefinite"/>
    </g>
    <!-- 更多队列元素... -->
  </g>

  <!-- 艺术字笔画装饰 -->
  <g stroke-linecap="round">
    <!-- "奔"字笔画 -->
    <path d="M50 70l30-40" stroke-width="3">
      <animate attributeName="stroke-dashoffset" from="80" to="0" dur="2s" repeatCount="indefinite"/>
    </path>

    <!-- "跑"字结构 -->
    <g transform="translate(200,60)">
      <path d="M0 0a15 15 0 0 1 30 0" fill="#FFEBCD"/>
      <path d="M15 0l-5 20 10 0" stroke="#A0522D"/>
    </g>
  </g>

  <!-- 动态背景 -->
  <path d="M0 110h400" stroke="#D2B48C" stroke-width="4" stroke-dasharray="8 4"/>
</svg>